<svg viewBox="0 0 128 128" xml:space="preserve" xmlns="http://www.w3.org/2000/svg" enable-background="new 0 0 128 128">
<path d="m10 70 13.1 5.2c1.9.8 4.1-.2 4.9-2.1L39.1 43c.8-1.9-.2-4.1-2.1-4.9l-13-5.2c-1.9-.8-4.1.2-4.9 2.1L6.9 65.8c-.8 1.9.2 4.1 2.1 4.8z" fill="#0B41AA" class="fill-cbccce"></path>
<path d="m115 73.6-13.1 5.2c-1.9.8-4.1-.2-4.9-2.1L84.9 46c-.8-1.9.2-4.1 2.1-4.9l13.1-5.2c1.9-.8 4.1.2 4.9 2.1l12.2 30.7c.7 2-.3 4.2-2.2 4.9z" fill="#0083EF" class="fill-cbccce"></path>
<path d="m118.9 68-12.2-30.7c-1.2-2.9-4.5-4.4-7.5-3.2l-13.1 5.2c-2.1.8-3.5 2.8-3.6 4.9l-15-4.4c-4-1.2-8.1-.6-11.5 1.3H41.4c-.2-2.1-1.5-3.9-3.6-4.7l-13.1-5.2c-2.9-1.2-6.3.3-7.5 3.2L5.1 65c-1.2 2.9.3 6.3 3.2 7.5l13.1 5.2c.7.3 1.4.4 2.1.4 2.3 0 4.5-1.4 5.4-3.6l.5-1.4L54.5 94c1.8 1.5 4.1 2.3 6.4 2.3 1.7 0 3.4-.4 4.9-1.3l.9-.5.9.9c1.2 1.2 2.8 1.8 4.4 1.8s3.2-.6 4.4-1.8c.7-.7 1.2-1.6 1.5-2.5 2.2.8 4.8.2 6.5-1.5 1.1-1.1 1.8-2.6 1.8-4.1 1.6.1 3.2-.4 4.5-1.4l.1-.1c1.5-1.2 2.5-2.9 2.7-4.9v-1.6l1.9-1.3c1 1.9 3 3 5.1 3 .7 0 1.4-.1 2.1-.4l13.1-5.2c3-1.1 4.4-4.4 3.2-7.4zM66.5 43.6l17.3 5.1 10.1 25.6-2.1 1.4C86.6 70 77.4 59.5 73.7 55.2c-1.9-2.2-5-2.8-7.6-1.4l-9.2 4.9c-1.9 1-4.2.5-5.5-1.2-1.1-1.5-1.2-3.5-.1-5.1l3.1-4.5c2.6-3.9 7.5-5.7 12.1-4.3zM25.1 73c-.4.9-1.4 1.3-2.3 1l-13-5.2c-.9-.4-1.3-1.4-1-2.3L21 35.8c.2-.4.5-.8.9-1 .4-.2.9-.2 1.3 0L36.3 40c.9.4 1.3 1.4 1 2.3L25.1 73zm63.4 9.6c-1.3 1-3 .9-4.1-.2L72.5 69.7c-.8-.8-2-.8-2.8-.1-.8.8-.8 2-.1 2.8l11.9 12.7.2.2c.9.9.8 2.3-.1 3.2-.9.9-2.4.9-3.3 0l-12-12c-.8-.8-2-.8-2.8 0-.3.5-.5 1-.5 1.5s.2 1 .6 1.4l10 10c.9.9.9 2.3 0 3.2-.8.8-2.3.8-3.2 0l-8.5-8.5c-.8-.8-2-.8-2.8 0-.8.8-.8 2 0 2.8l4.6 4.6c-2.1 1.2-4.8.9-6.7-.6L31.3 69.5c-.1-.1-.2-.2-.4-.2L40.5 45h11c-.2.2-.3.4-.5.6l-3.1 4.5c-2 3-2 6.9.2 9.8 2.5 3.3 6.9 4.3 10.6 2.4l9.2-4.9c.9-.5 2-.3 2.7.5 4.6 5.3 13.1 15.1 18.2 20.6.6.6.8 1.4.7 2.2.1.7-.3 1.4-1 1.9zm25.7-10.8-13 5.2c-.9.4-1.9-.1-2.3-1l-.7-1.7-11.5-29c-.4-.9.1-1.9 1-2.3l13.1-5.2c.2-.1.4-.1.6-.1.2 0 .5 0 .7.1.4.2.8.5.9 1l12.2 30.7c.4.9-.1 1.9-1 2.3z" fill="#000000" class="fill-000000"></path>
</svg>