<?xml version="1.0" encoding="UTF-8"?>
<svg xmlns="http://www.w3.org/2000/svg" xmlns:xlink="http://www.w3.org/1999/xlink"
     width="400" height="400.0" viewBox="-260.0 -260.0 520 520">
<defs>
</defs>
<path d="M-185,235 V85 H-235 V65 Q-235,15,-185,15 H-185 V-135 Q-185,-185,-135,-185 H35 Q85,-185,85,-135 V-115 H-65 Q-115,-115,-115,-65 L-115,15 L85,15 L85,35 Q85,85,35,85 H-115 V185 Q-115,235,-165,235" id="f" stroke-width="0" fill="#000000" transform="skewX(-15)" fill-opacity="1" />
<path d="M-185,235 V85 H-235 V65 Q-235,15,-185,15 H-185 V-135 Q-185,-185,-135,-185 H35 Q85,-185,85,-135 V-115 H-65 Q-115,-115,-115,-65 L-115,15 L85,15 L85,35 Q85,85,35,85 H-115 V185 Q-115,235,-165,235" id="f" stroke-width="0" fill="#000000" transform="skewX(-15) rotate(180)" fill-opacity="1" />
</svg>